<svg version="1.2" xmlns="http://www.w3.org/2000/svg" viewBox="0 0 2468 1360" width="2468" height="1360">
	<title>output-onlinepngtools</title>
	<style>
		.s0 { fill: #ed1c24 } 
	</style>
	<path id="Path 0" fill-rule="evenodd" class="s0" d="m238 241h69v113h61v-113h69v304h-69v-126h-61v126h-69zm319.4 0l78.1 0.5 39.7 149c21.9 82 40 150.2 40.8 154.5l-71.5-0.5-11.1-49-73.9-0.5-4.9 21.7c-2.7 12-5.3 23.3-6.6 28.3h-70l0.4-2.3c0.3-1.2 18.2-69.6 39.8-152zm21.9 164.6c-3.5 17.6-6.4 32.5-6.4 33.2 0 1 5.4 1.3 23.5 1.3h23.5c-0.8-3.5-3.9-18.7-7.3-36-3.5-17.4-8.5-45.4-11.1-62.3-2.6-16.9-5.1-30.7-5.5-30.7-0.4 0-2.9 14-5.5 31.2-2.7 17.2-7.7 45.7-11.2 63.3zm169.6-164.5h71l0.3 111.2c0.2 102.7 0.4 111.6 2 116.3 0.9 2.7 2.7 6.4 4 8.2 1.2 1.8 4.6 5 13 10.8h10.6c8.9 0 11.3-0.4 14.6-2.2 2.2-1.1 5.6-3.8 7.4-6 1.9-2.1 4.4-5.9 5.5-8.3 2.1-4.5 2.1-5.3 2.6-230h70v109.2c0 90.3-0.2 111.2-1.4 120.3-0.8 6-2.4 14.3-3.5 18.5-1.1 4.1-2.8 9.7-3.8 12.5-1 2.7-3.6 8.3-5.8 12.4-2.2 4.1-6.7 10.3-10 13.9-3.3 3.5-8.7 8.3-12 10.5-3.3 2.2-8.2 5-11 6.2-2.7 1.2-8.6 3.2-13 4.3-4.4 1.1-11.2 2.6-15.2 3.1-4 0.6-14.8 1.1-24 1-9.2 0-19.9-0.4-23.8-1-3.8-0.5-10.6-1.9-15-3-4.4-1.1-12.3-4.1-17.5-6.6-7.6-3.8-11-6.2-17-12.3-5.4-5.4-8.8-9.8-11.7-15.5-2.3-4.4-5.5-12.1-7.1-17-1.6-5-3.9-14.7-5.1-21.5-1.2-7.1-2.5-21.4-3.1-33-0.5-11.3-0.9-61.4-1-111.3zm250 0h98.5c54.2 0 98.5 0.3 98.6 0.8 0 0.4-23.6 54-104.6 237.7l95.5 0.5v65h-101c-80.3 0-100.9-0.2-100.6-1.2 0.3-0.7 23.7-53.9 52.1-118.3 28.5-64.3 51.9-117.6 52.1-118.2 0.4-1-9.1-1.3-90.6-1.3zm238 0h140v65h-71v56h62v63h-62v55h71v65h-140zm195 0h70l43.8 87c24.1 47.8 43.9 86.4 44 85.7 0.2-0.6-0.3-8.6-1.2-17.7-1.2-13-1.5-31.1-1.6-155h69v304h-70l-25.9-51.7c-14.2-28.5-33.5-66.7-59.6-118l0.5 169.7h-69zm290 0h140v65h-71v56h62v63h-62v55h71v65h-140zm172.4 0h76.6l6.6 15.8c3.6 8.6 10.8 26.3 15.9 39.2 5.1 12.9 9.6 24.4 9.9 25.5 0.4 1.2 1 1.6 1.5 1 0.4-0.5 2.2-4.8 3.9-9.5 1.8-4.7 9-22.7 29-71.5l38-0.3c20.9-0.1 38.1 0.1 38.2 0.5 0 0.5-15.9 33.3-35.4 73.1-19.6 39.7-35.6 72.4-35.6 72.7 0 0.3 17 35.3 37.6 77.8 20.7 42.4 37.8 77.8 38 78.5 0.4 0.9-7.6 1.2-76.1 0.7l-12.2-28.5c-6.7-15.7-15.2-36.2-19-45.7-3.7-9.5-7-17.2-7.3-17.3-0.2 0-1.9 4.4-3.6 9.8-1.7 5.3-10 26-33.9 82.2h-38.2c-30.2 0-38.2-0.3-37.8-1.2 0.2-0.7 16.9-35.9 37.1-78.3 20.2-42.3 36.7-77.4 36.7-78 0-0.5-15.7-33.7-34.9-73.7zm-1661.4 775h1888v44h-1888zm83.3-371l66.2-0.1 6.7 16.8c3.7 9.2 8.9 22.8 11.6 30.3 2.7 7.4 6.9 19.4 9.3 26.7 2.4 7.3 4.6 13.3 4.9 13.3 0.3 0 1.8-4.4 3.4-9.8 1.6-5.3 5.5-17.2 8.7-26.2 3.2-9.1 8.9-24.3 19.4-51h33.7c18.6 0 33.8 0.3 33.8 0.7 0 0.4-15.7 32.9-70.1 143.8l0.1 116.5h-59v-118.5zm418.7 33h57v48h22v47h-22v133h-57v-133h-21v-47h21zm-147.5 44.4c7.6 0.3 10 0.8 15.5 3.5 3.6 1.7 8.2 4.8 10.4 6.8 2.1 2.1 6 6.7 13.7 16.8l-0.1-23.5h57v180h-57l0.1-23.5-4.9 6.5c-2.7 3.5-7.2 8.6-10.1 11.2-2.8 2.6-7.7 6-10.8 7.5-5.3 2.5-6.8 2.8-16.8 2.7-9.9 0-11.6-0.3-17-2.8-3.3-1.6-8-4.6-10.5-6.8-2.5-2.2-6.3-6.6-8.5-9.7-2.2-3.1-5.4-8.6-7.1-12.1-1.7-3.6-4.2-10.6-5.7-15.5-1.4-5-3.2-13.7-4.1-19.3-1-6.7-1.6-16.8-1.6-29 0-14 0.5-21.5 1.9-29.7 1.1-6.1 3-14.2 4.2-18 1.2-3.9 3.6-10 5.3-13.5 1.7-3.6 4.9-9.1 7.1-12.1 2.2-3.1 6.3-7.5 9-9.8 2.8-2.3 7-5.2 9.5-6.3 2.5-1.2 6.1-2.5 8-2.9 1.9-0.5 7.6-0.7 12.5-0.5zm6.8 56.1c-0.6 1.1-2.1 4-3.1 6.5-1.1 2.4-2.6 7.8-3.2 12-0.8 4.7-1 13.4-0.7 23.5 0.3 10.3 1 18 2.1 21.7 0.9 3.2 2.7 7.6 4.1 9.8 1.4 2.2 4 4.9 5.8 6 2.1 1.3 5 2 8.2 2 3.2 0 6.1-0.7 8.3-2 2.1-1.4 4.2-4.1 6.2-8.3 1.7-3.7 3.4-9.5 4.1-14.2 0.7-4.9 1-14.5 0.7-24.5q-0.5-16.5-2.1-21.5c-0.9-2.8-2.7-6.6-3.9-8.5-1.3-2-3.9-4.6-5.8-5.8-2.4-1.6-4.9-2.3-8-2.3-2.5 0.1-6.1 0.9-8 1.8-1.9 1-4 2.7-4.7 3.8zm297.2-56.1c7.6 0.3 10 0.8 15.5 3.5 3.6 1.7 8.2 4.8 10.4 6.8 2.1 2.1 6 6.7 13.7 16.8l-0.1-23.5h57v180h-57l0.1-23.5-4.9 6.5c-2.7 3.5-7.2 8.6-10.1 11.2-2.8 2.6-7.7 6-10.8 7.5-5.3 2.5-6.8 2.8-16.8 2.7-9.9 0-11.6-0.3-17-2.8-3.3-1.6-8-4.6-10.5-6.8-2.5-2.2-6.3-6.6-8.5-9.7-2.2-3.1-5.4-8.6-7.1-12.1-1.7-3.6-4.2-10.6-5.7-15.5-1.4-5-3.2-13.7-4.1-19.3-1-6.7-1.6-16.8-1.6-29 0-14 0.5-21.5 1.9-29.7 1.1-6.1 3-14.2 4.2-18 1.2-3.9 3.6-10 5.3-13.5 1.7-3.6 4.9-9.1 7.1-12.1 2.2-3.1 6.3-7.5 9-9.8 2.8-2.3 7-5.2 9.5-6.3 2.5-1.2 6.1-2.5 8-2.9 1.9-0.5 7.6-0.7 12.5-0.5zm6.8 56.1c-0.6 1.1-2.1 4-3.1 6.5-1.1 2.4-2.6 7.8-3.2 12-0.8 4.7-1 13.4-0.7 23.5 0.3 10.3 1 18 2.1 21.7 0.9 3.2 2.7 7.6 4.1 9.8 1.4 2.2 4 4.9 5.8 6 2.1 1.3 5 2 8.2 2 3.2 0 6.1-0.7 8.3-2 2.1-1.4 4.2-4.1 6.2-8.3 1.7-3.7 3.4-9.5 4.1-14.2 0.7-4.9 1-14.5 0.7-24.5q-0.5-16.5-2.1-21.5c-0.9-2.8-2.7-6.6-3.9-8.5-1.3-2-3.9-4.6-5.8-5.8-2.4-1.6-4.9-2.3-8-2.3-2.5 0.1-6.1 0.9-8 1.8-1.9 1-4 2.7-4.7 3.8zm183.7-56.1c7.1 0.2 10.7 0.9 14.5 2.6 2.8 1.2 7.2 3.9 9.9 5.8 2.7 2 7.1 6.2 14.6 15.2v-20h57v89.7c0 74.7-0.2 91.2-1.5 98.3-0.8 4.6-2.5 11.6-3.8 15.5-1.3 3.8-3.6 9.3-5.1 12.2-1.4 2.9-4 7.2-5.7 9.5-1.7 2.3-5.8 6.7-9.2 9.6-3.5 3-10.5 7.5-16.2 10.2-5.5 2.7-12.9 5.7-16.5 6.7-4.9 1.3-10.5 1.7-22.5 1.7-12.4 0.1-17.5-0.3-22.5-1.7-3.6-1-10.1-3.5-14.5-5.6-4.4-2.1-10.5-5.6-13.5-7.8-3-2.3-7.4-6.5-9.6-9.5-2.3-2.9-5.4-7.8-6.9-10.8-1.6-3.1-3.9-8.8-7.5-20h51l3.3 4.2c1.7 2.3 5.2 5.4 7.7 7 3.6 2.2 5.7 2.8 10.3 2.8 3.1 0 7.4-0.7 9.5-1.6 2-0.8 5-2.8 6.5-4.2 1.6-1.5 4.3-5.2 9.2-13.7l0.6-36-2.7 3.5c-1.5 1.9-5 5.7-7.8 8.3-2.8 2.7-7.8 6.3-11.1 8-5.7 3-6.6 3.1-17.5 3.1-9.8 0.1-12.5-0.3-18-2.4-3.6-1.3-8.7-4.1-11.5-6.1-2.7-2-7.1-6-9.6-9-2.6-3-6.2-8.6-8.1-12.4-1.9-3.9-4.5-10-5.7-13.5-1.1-3.6-3-11.7-4.1-18-1.5-8.6-2-16.1-2-29.5 0-11.5 0.6-21.7 1.6-28 0.9-5.5 2.7-13.9 4.1-18.5 1.4-4.7 3.9-11.2 5.5-14.5 1.7-3.3 5.1-8.7 7.5-12 2.5-3.3 6.7-7.7 9.2-9.7 2.5-2 6.9-4.6 9.6-5.8 2.8-1.2 6.6-2.6 8.5-3.1 1.9-0.5 7.8-0.7 13-0.5zm4.1 54.2c-1.5 2.1-3.9 6.6-5.1 9.9-2.2 5.5-2.4 7.5-2.4 25.5-0.1 15.7 0.2 20.7 1.7 26 1 3.5 3 8.5 4.5 11 1.6 2.4 4.4 5.5 6.3 6.7 2.5 1.7 4.8 2.3 8.9 2.3 4.2 0 6.4-0.6 9.3-2.5 2.6-1.8 4.6-4.4 6.6-8.8 1.6-3.4 3.5-9.6 4.1-13.7 0.8-4.7 1.1-13.7 0.8-24-0.4-13.4-0.9-17.8-2.7-23-1.2-3.6-3.2-8-4.6-9.8-1.4-1.8-3.8-3.9-5.5-4.7-1.6-0.9-5.1-1.5-7.7-1.5-2.7 0-6.3 0.6-8.1 1.4-1.8 0.7-4.6 3.1-6.1 5.2zm184.4-54.2c7.6 0.3 10 0.8 15.5 3.5 3.6 1.7 8.2 4.8 10.4 6.8 2.1 2.1 6 6.7 13.7 16.8l-0.1-23.5h57v180h-57l0.1-23.5-4.9 6.5c-2.7 3.5-7.2 8.6-10.1 11.2-2.8 2.6-7.7 6-10.8 7.5-5.3 2.5-6.8 2.8-16.8 2.7-9.9 0-11.6-0.3-17-2.8-3.3-1.6-8-4.6-10.5-6.8-2.5-2.2-6.3-6.6-8.5-9.7-2.2-3.1-5.4-8.6-7.1-12.1-1.7-3.6-4.2-10.6-5.7-15.5-1.4-5-3.2-13.7-4.1-19.3-1-6.7-1.6-16.8-1.6-29 0-14 0.5-21.5 1.9-29.7 1.1-6.1 3-14.2 4.2-18 1.2-3.9 3.6-10 5.3-13.5 1.7-3.6 4.9-9.1 7.1-12.1 2.2-3.1 6.3-7.5 9-9.8 2.8-2.3 7-5.2 9.5-6.3 2.5-1.2 6.1-2.5 8-2.9 1.9-0.5 7.6-0.7 12.5-0.5zm6.8 56.1c-0.6 1.1-2.1 4-3.1 6.5-1.1 2.4-2.6 7.8-3.2 12-0.8 4.7-1 13.4-0.7 23.5 0.3 10.3 1 18 2.1 21.7 0.9 3.2 2.7 7.6 4.1 9.8 1.4 2.2 4 4.9 5.8 6 2.1 1.3 5 2 8.2 2 3.2 0 6.1-0.7 8.3-2 2.1-1.4 4.2-4.1 6.2-8.3 1.7-3.7 3.4-9.5 4.1-14.2 0.7-4.9 1-14.5 0.7-24.5q-0.5-16.5-2.1-21.5c-0.9-2.8-2.7-6.6-3.9-8.5-1.3-2-3.9-4.6-5.8-5.8-2.4-1.6-4.9-2.3-8-2.3-2.5 0.1-6.1 0.9-8 1.8-1.9 1-4 2.7-4.7 3.8zm240.2-56l0.5 55.5-14.2-0.3c-13.3-0.2-14.6-0.1-18.8 2.1-2.5 1.3-5.4 3.2-6.5 4.2-1.1 1-3.2 4.2-4.7 7.1-1.5 3-3.3 7.6-3.9 10.4-0.7 3.1-1.3 23.1-1.9 104.5h-57v-180h55l0.5 31.4 5.7-8.4c3.1-4.7 7.8-10.8 10.5-13.6 2.6-2.8 6.6-6.3 8.8-7.8 2.2-1.4 5.8-3.3 8-4.1 2.4-0.9 6.8-1.4 18-1zm80-0.1c7.6 0.3 10 0.8 15.5 3.5 3.6 1.7 8.2 4.8 10.4 6.8 2.1 2.1 6 6.7 13.7 16.8l-0.1-23.5h57v180h-57l0.1-23.5-4.9 6.5c-2.7 3.5-7.2 8.6-10.1 11.2-2.8 2.6-7.7 6-10.8 7.5-5.3 2.5-6.8 2.8-16.8 2.7-9.9 0-11.6-0.3-17-2.8-3.3-1.6-8-4.6-10.5-6.8-2.5-2.2-6.3-6.6-8.5-9.7-2.2-3.1-5.4-8.6-7.1-12.1-1.7-3.6-4.2-10.6-5.7-15.5-1.4-5-3.2-13.7-4.1-19.3-1-6.7-1.6-16.8-1.6-29 0-14 0.5-21.5 1.9-29.7 1.1-6.1 3-14.2 4.2-18 1.2-3.9 3.6-10 5.3-13.5 1.7-3.6 4.9-9.1 7.1-12.1 2.2-3.1 6.3-7.5 9-9.8 2.8-2.3 7-5.2 9.5-6.3 2.5-1.2 6.1-2.5 8-2.9 1.9-0.5 7.6-0.7 12.5-0.5zm6.8 56.1c-0.6 1.1-2.1 4-3.1 6.5-1.1 2.4-2.6 7.8-3.2 12-0.8 4.7-1 13.4-0.7 23.5 0.3 10.3 1 18 2.1 21.7 0.9 3.2 2.7 7.6 4.1 9.8 1.4 2.2 4 4.9 5.8 6 2.1 1.3 5 2 8.2 2 3.2 0 6.1-0.7 8.3-2 2.1-1.4 4.2-4.1 6.2-8.3 1.7-3.7 3.4-9.5 4.1-14.2 0.7-4.9 1-14.5 0.7-24.5q-0.5-16.5-2.1-21.5c-0.9-2.8-2.7-6.6-3.9-8.5-1.3-2-3.9-4.6-5.8-5.8-2.4-1.6-4.9-2.3-8-2.3-2.5 0.1-6.1 0.9-8 1.8-1.9 1-4 2.7-4.7 3.8zm192.7-56.1c9.3 0.3 15.9 1 21 2.4 4.1 1.1 12 3.8 17.5 6 5.5 2.1 13.5 5.6 17.8 7.8 4.2 2.1 7.7 4.2 7.7 4.6 0 0.4-4.6 9.2-10.1 19.5-5.6 10.3-10.4 19.1-10.8 19.6-0.3 0.4-4.9-1.5-10.1-4.2-5.2-2.8-13.1-6.2-17.5-7.6-5.2-1.7-10.2-2.6-14.2-2.6-3.6 0.1-7.6 0.7-9.3 1.6-1.6 0.8-3.4 2.4-4 3.5-0.5 1.1-1 3.6-1 5.7 0.1 3.1 0.8 4.5 4.3 7.8 3.3 3.2 7.2 5.3 17.7 9.5 7.4 2.9 16 6.7 19 8.3 3 1.7 8 4.7 11 6.7 3 2 7.2 5.6 9.3 8.1 2.2 2.4 4.8 6.2 5.9 8.4 1.2 2.2 2.7 6.2 3.4 9 0.8 2.7 1.4 9 1.4 14 0 4.9-0.7 11.7-1.5 15-0.9 3.3-2.8 8.7-4.4 12-1.6 3.3-4.9 8.3-7.3 11.1-2.3 2.8-6.5 7-9.3 9.1-2.7 2.2-7.2 5.1-10 6.5-2.7 1.4-8.6 3.5-13 4.7-5.8 1.5-11 2.1-18.7 2.1-6 0-14.3-0.7-18.5-1.6-4.3-0.9-11.2-2.7-15.3-4-4.1-1.4-13-5.3-19.8-8.7-6.7-3.4-12.2-6.6-12.2-7 0-0.4 4.1-9.4 9-20 5-10.6 9.4-19.6 9.8-20 0.4-0.4 5.4 1.7 11.2 4.7 5.8 3 13.9 6.6 18 8 4.7 1.6 9.7 2.6 13.3 2.6 3.1 0 7.1-0.7 8.7-1.5 1.7-0.9 3.9-2.8 5-4.3 1.2-1.5 2.1-4.3 2.1-6.2q0-3.5-2.3-5.7c-1.3-1.2-9.7-5.6-18.8-9.8-9.1-4.2-19.4-9.3-23-11.3-3.6-2-9.2-6.2-12.5-9.3-3.3-3.1-7.2-7.9-8.7-10.6-1.5-2.6-3.4-7.5-4.2-10.8-0.9-3.3-1.6-10.1-1.6-15 0-5 0.7-11.7 1.5-15 0.9-3.3 3-8.7 4.7-12 1.7-3.3 4.9-8.1 7.2-10.7 2.3-2.6 6.1-6.2 8.6-8.1 2.5-1.9 6.9-4.6 9.8-6.1 2.8-1.4 8.5-3.5 12.5-4.6 6-1.7 9.4-2 20.7-1.6zm91.8 3.6h57.2l0.3 60.7c0.2 59.5 0.2 60.9 2.3 65.3 1.2 2.4 3.4 5.6 4.8 7 2.4 2.1 3.7 2.5 9.1 2.5 5.4 0 6.8-0.4 9.1-2.5 1.4-1.4 3.5-4.3 4.5-6.5 1.7-3.8 1.9-7.9 1.9-126.5h56.8l-0.3 62.7c-0.1 59.5-0.3 63.2-2.2 70.3-1.1 4.1-3.2 10.4-4.7 14-1.5 3.5-4.7 9.2-7 12.5-2.4 3.3-6.5 7.8-9.2 10.1-2.7 2.2-7.8 5.7-11.4 7.6-3.6 2-9.9 4.4-14 5.4-5.8 1.4-11.2 1.9-24 1.9-14.3 0-17.6-0.4-25-2.4-4.7-1.3-11-3.8-14-5.5-3-1.7-7.7-4.9-10.4-7.1-2.7-2.2-6.7-6.7-8.9-10-2.2-3.3-5.3-9-6.9-12.5-1.6-3.6-3.8-10.4-5-15-1.9-8-2.1-12.2-2.5-70.3z"/>
</svg>