<svg version="1.1" xmlns="http://www.w3.org/2000/svg" xmlns:xlink="http://www.w3.org/1999/xlink" width="293.13818" height="145.64727" viewBox="0,0,293.13818,145.64727"><g transform="translate(-93.43091,-107.17637)"><g data-paper-data="{&quot;isPaintingLayer&quot;:true}" fill-rule="nonzero" stroke-linejoin="miter" stroke-miterlimit="10" stroke-dasharray="" stroke-dashoffset="0" style="mix-blend-mode: normal"><path d="M93.43091,252.82365v-145.64727h293.13818v145.64727z" fill="#ffffff" stroke="#1f2030" stroke-width="0" stroke-linecap="butt"/><path d="M137.77234,230.57874l3.42185,-106.07724" fill="none" stroke="#1f2030" stroke-width="6" stroke-linecap="round"/><path d="M142.90511,129.63427c0,0 8.55634,103.11475 9.34344,106.61036c2.76492,12.27935 6.05487,-111.74312 6.05487,-111.74312" fill="none" stroke="#1f2030" stroke-width="6" stroke-linecap="round"/><path d="M181.21606,230.17949l-15.67572,-0.9221l4.6105,-106.04163l11.98732,-0.9221" fill="none" stroke="#1f2030" stroke-width="6" stroke-linecap="round"/><path d="M168.30664,178.54183h11.06521" fill="none" stroke="#1f2030" stroke-width="6" stroke-linecap="round"/><path d="M208.87909,119.52736h-15.67572l-0.9221,109.73003l14.75362,1.84421" fill="none" stroke="#1f2030" stroke-width="6" stroke-linecap="round"/><path d="M193.20337,177.61973l12.90942,0.9221" fill="none" stroke="#1f2030" stroke-width="6" stroke-linecap="round"/><path d="M219.0222,120.44946c0,0 -0.02086,104.00413 0,111.57424c0.01526,5.53812 8.94783,-0.74142 12.4796,-18.35921c1.71463,-8.55322 3.99646,-48.07767 0.90416,-66.7059c-3.80772,-22.93802 -13.38377,-24.66492 -13.38377,-24.66492" fill="none" stroke="#1f2030" stroke-width="6" stroke-linecap="round"/><path d="M105.26479,228.86781v-104.36632" fill="none" stroke="#1f2030" stroke-width="6" stroke-linecap="round"/><path d="M289.7672,230.57874v-106.07724" fill="none" stroke="#1f2030" stroke-width="6" stroke-linecap="round"/><path d="M264.9778,120.91051c0,0 1.58697,58.70365 2.77757,78.43356c0.74978,12.42495 2.10199,24.25083 3.67714,28.53017c1.01201,2.74941 3.99268,-20.04715 5.31736,-34.68174c1.77116,-19.56707 4.3647,-72.28199 4.3647,-72.28199" fill="none" stroke="#1f2030" stroke-width="6" stroke-linecap="round"/><path d="M313.61368,230.17949l-14.75362,1.8442l1.8442,-109.73003h11.98731" fill="none" stroke="#1f2030" stroke-width="6" stroke-linecap="round"/><path d="M302.54846,179.46393l8.29891,1.8442" fill="none" stroke="#1f2030" stroke-width="6" stroke-linecap="round"/><path d="M321.91259,126.90417l4.61051,91.28801" fill="none" stroke="#1f2030" stroke-width="6" stroke-linecap="round"/><path d="M344.96511,210.81537l5.53261,-87.59961" fill="none" stroke="#1f2030" stroke-width="6" stroke-linecap="round"/><path d="M346.34827,202.51646c0,0 -3.62112,18.02089 -4.60984,22.65958c-1.11907,5.25024 -2.40969,-4.8588 -2.8266,-8.91668c-1.27408,-12.40102 -3.16772,-58.00376 -3.16772,-58.00376c0,0 -1.14475,27.71656 -2.20287,52.00274c-0.54974,12.61793 -3.84241,17.10846 -4.17268,21.23687c-0.45407,5.67584 -2.84547,-22.52404 -2.84547,-22.52404" fill="none" stroke="#1f2030" stroke-width="6" stroke-linecap="round"/><path d="M351.88087,210.81537c0,0 3.82496,35.24959 17.25381,19.7355c2.90727,-3.35872 7.0377,-16.67705 1.25671,-31.1005c-9.80657,-24.46718 -14.28295,-50.28122 -14.45263,-54.57982c-0.18607,-4.71373 0.89451,-13.76843 3.28728,-18.41645c1.30196,-2.52909 3.01491,-10.33374 7.99846,-6.15765c11.18217,9.37038 5.86471,37.03705 5.86471,37.03705" fill="none" stroke="#1f2030" stroke-width="6" stroke-linecap="round"/></g></g></svg>