<svg version="1.1" xmlns="http://www.w3.org/2000/svg" xmlns:xlink="http://www.w3.org/1999/xlink" width="293.13818" height="145.64727" viewBox="0,0,293.13818,145.64727"><g transform="translate(-93.43091,-107.17636)"><g data-paper-data="{&quot;isPaintingLayer&quot;:true}" fill-rule="nonzero" stroke-linejoin="miter" stroke-miterlimit="10" stroke-dasharray="" stroke-dashoffset="0" style="mix-blend-mode: normal"><path d="M93.43091,252.82364v-145.64727h293.13818v145.64727z" fill="#e3e6ff" stroke="#1f2030" stroke-width="0" stroke-linecap="butt"/><path d="M116.75929,207.3955c0,0 4.25682,-33.64829 2.5718,-55.115c-0.23057,-2.93736 23.32981,2.35246 23.32981,2.35246" fill="none" stroke="#1f2030" stroke-width="8.5" stroke-linecap="round"/><path d="M119.54493,183.05787l16.80403,1.91864" fill="none" stroke="#1f2030" stroke-width="8.5" stroke-linecap="round"/><path d="M170.71085,207.01998c0,0 -4.6541,-52.95252 -12.31842,-53.16369c-2.46021,-0.06778 -12.96675,54.46036 -12.96675,54.46036" fill="none" stroke="#1f2030" stroke-width="8.5" stroke-linecap="round"/><path d="M146.72236,190.81154l18.15345,-0.64834" fill="none" stroke="#1f2030" stroke-width="8.5" stroke-linecap="round"/><path d="M182.05676,207.66832l3.89003,-53.16368" fill="none" stroke="#1f2030" stroke-width="8.5" stroke-linecap="round"/><path d="M207.99026,151.91129c0,0 -5.483,53.51876 -8.42839,55.75703c-3.53358,2.68526 -12.96675,-49.922 -12.96675,-49.922" fill="none" stroke="#1f2030" stroke-width="8.5" stroke-linecap="round"/><path d="M241.19295,206.50911c0,0 -4.6541,-52.95251 -12.31841,-53.16368c-2.46021,-0.06778 -12.96675,54.46036 -12.96675,54.46036" fill="none" stroke="#1f2030" stroke-width="8.5" stroke-linecap="round"/><path d="M217.20446,190.30067l18.15345,-0.64834" fill="none" stroke="#1f2030" stroke-width="8.5" stroke-linecap="round"/><path d="M255.0785,208.96499l3.89003,-57.70204" fill="none" stroke="#1f2030" stroke-width="8.5" stroke-linecap="round"/><path d="M284.25369,207.01998l-24.63683,-21.39514" fill="none" stroke="#1f2030" stroke-width="8.5" stroke-linecap="round"/><path d="M258.32019,183.03149c0,0 11.91217,-3.58299 16.4607,-8.47266c0.87,-0.93525 7.57762,-5.19903 9.77215,-8.50987c2.41052,-3.63668 4.06931,-8.98476 1.56958,-11.21363c-5.77686,-5.15091 -27.1541,-3.57239 -27.1541,-3.57239" fill="none" stroke="#1f2030" stroke-width="8.5" stroke-linecap="round"/><path d="M307.72108,207.01998l2.59335,-55.1087" fill="none" stroke="#1f2030" stroke-width="8.5" stroke-linecap="round"/><path d="M297.34768,151.26295l27.23018,0.64834" fill="none" stroke="#1f2030" stroke-width="8.5" stroke-linecap="round"/><path d="M331.70958,197.61909c0,0 2.4074,8.37067 6.63518,9.13682c7.17899,1.30095 17.63182,1.61194 18.56346,-7.16304c0.73789,-6.95009 -9.75686,-15.9614 -15.23887,-23.47926c-2.11621,-2.9021 -13.79278,-23.38559 9.77522,-23.92201c15.13171,-0.34441 11.38521,15.60396 11.38521,15.60396" fill="none" stroke="#1f2030" stroke-width="8.5" stroke-linecap="round"/></g></g></svg>